<svg width="1920" height="960" viewBox="0 0 1920 960" fill="none" xmlns="http://www.w3.org/2000/svg"><path fill="#212121" d="M0 960h2920V835H0z"/><path d="M71.9453 907.691h-8.7109V884H57.375v23.691h-8.5938v4.747h23.1641v-4.747zM81.0273 884h-5.6445v21.133h5.6445V884zm-1.6601 29.707h6.1523l-5.4101-6.055h-4.5899l3.8477 6.055zm13.3008-3.379v-5.195h3.6132v-4.141H92.668v-10.547c0-.781.1497-1.341.4492-1.679.2995-.339.8724-.508 1.7187-.508.625 0 1.1784.045 1.6602.137v-4.278c-1.1068-.338-2.2461-.508-3.418-.508-3.9583 0-5.9765 1.999-6.0547 5.996v11.387h-3.0859v4.141h3.0859v5.195h5.6446zm19.414-24.18c-1.393-1.692-3.32-2.539-5.781-2.539-2.266 0-3.998.651-5.196 1.953-1.1844 1.303-1.7899 3.21-1.8159 5.723v13.848h5.6449V891.48c0-2.2 1.002-3.3 3.007-3.3 1.914 0 3.23.664 3.946 1.992v14.961h5.664V884h-5.313l-.156 2.148zM127.766 884h-5.664v30h5.664v-30zm3.789 10.762c0 2.096.403 3.965 1.211 5.605.807 1.641 1.966 2.91 3.476 3.809 1.524.898 3.288 1.347 5.293 1.347 2.852 0 5.176-.872 6.973-2.617 1.81-1.745 2.819-4.114 3.027-7.109l.039-1.445c0-3.243-.905-5.847-2.715-7.813-1.81-1.953-4.238-2.93-7.285-2.93-3.047 0-5.482.977-7.304 2.93-1.81 1.953-2.715 4.609-2.715 7.969v.254zm5.644-.41c0-2.006.378-3.542 1.133-4.61.755-1.054 1.836-1.582 3.242-1.582 1.367 0 2.435.521 3.203 1.563.769 1.054 1.153 2.734 1.153 5.039 0 1.966-.384 3.489-1.153 4.57-.768 1.081-1.849 1.621-3.242 1.621-1.38 0-2.448-.54-3.203-1.621-.755-1.068-1.133-2.728-1.133-4.98zm32.442-15.625h-3.418v33.711h3.418v-33.711zm15.82 5.273v28.438h8.75c2.5 0 4.733-.567 6.699-1.7 1.979-1.12 3.522-2.721 4.629-4.804 1.107-2.071 1.66-4.427 1.66-7.071v-1.308c0-2.644-.547-4.994-1.64-7.051-1.081-2.057-2.611-3.652-4.59-4.785-1.979-1.133-4.212-1.706-6.699-1.719h-8.809zm5.859 23.691v-18.984h2.832c2.292 0 4.043.749 5.254 2.246 1.211 1.498 1.83 3.639 1.856 6.426v1.504c0 2.89-.599 5.078-1.797 6.562-1.198 1.498-2.949 2.246-5.254 2.246h-2.891zm29.512-24.082c-3.099 0-5.625.951-7.578 2.852-1.94 1.901-2.91 4.434-2.91 7.598v.546c0 2.123.41 4.017 1.23 5.684.821 1.68 1.979 2.969 3.477 3.867 1.51.912 3.229 1.367 5.156 1.367 2.891 0 5.163-.911 6.816-2.734 1.667-1.823 2.5-4.407 2.5-7.754v-2.305h-13.457c.183-1.38.73-2.487 1.641-3.32.925-.833 2.09-1.25 3.496-1.25 2.175 0 3.874.788 5.098 2.363l2.773-3.105c-.846-1.198-1.992-2.135-3.437-2.813-1.446-.664-3.047-.996-4.805-.996zm-.644 17.344c-1.12 0-2.032-.377-2.735-1.133-.69-.755-1.133-1.836-1.328-3.242h7.852v.449c-.026 1.25-.365 2.214-1.016 2.891-.651.69-1.576 1.035-2.773 1.035zm24.003-11.113c0 .69-.345 1.23-1.035 1.621-.677.404-1.771.762-3.281 1.074-5.026 1.055-7.539 3.19-7.539 6.406 0 1.875.775 3.438 2.324 4.688 1.563 1.263 3.6 1.894 6.113 1.894 2.683 0 4.825-.631 6.426-1.894 1.615-1.263 2.422-2.904 2.422-4.922h-5.644c0 .807-.261 1.471-.782 1.992-.521.534-1.334.801-2.441.801-.951 0-1.686-.215-2.207-.645-.521-.429-.781-.976-.781-1.64 0-.625.293-1.133.879-1.524.598-.377 1.601-.709 3.007-.996 1.407-.273 2.591-.586 3.555-.937 2.982-1.094 4.473-2.988 4.473-5.684 0-1.927-.827-3.489-2.481-4.687-1.653-1.185-3.789-1.778-6.406-1.778-1.771 0-3.346.313-4.727.938-1.367.638-2.441 1.504-3.222 2.598-.782 1.106-1.172 2.298-1.172 3.574h5.351c.053-1.003.424-1.771 1.114-2.305.69-.534 1.614-.801 2.773-.801 1.081 0 1.895.202 2.442.606.559.416.839.957.839 1.621zm17.93-1.68c1.042 0 1.888.287 2.539.86.651.572.99 1.334 1.016 2.285h5.293c-.013-1.433-.404-2.748-1.172-3.946-.768-1.185-1.823-2.109-3.164-2.773-1.328-.651-2.8-.977-4.414-.977-3.021 0-5.404.957-7.149 2.871-1.744 1.928-2.617 4.584-2.617 7.969v.371c0 3.256.866 5.853 2.598 7.793 1.732 1.94 4.108 2.91 7.129 2.91 2.643 0 4.759-.755 6.347-2.265 1.602-1.498 2.416-3.496 2.442-5.996h-5.293c-.026 1.093-.365 1.979-1.016 2.656-.651.69-1.51 1.035-2.578 1.035-1.315 0-2.311-.482-2.988-1.445-.664-.951-.996-2.5-.996-4.649v-.586c0-2.174.332-3.737.996-4.687.664-.951 1.673-1.426 3.027-1.426zm23.945 11.68c-.768.104-1.445.156-2.031.156-2.135 0-3.535-.723-4.199-2.168V884h-5.645v21.133h5.332l.157-2.52c1.132 1.94 2.702 2.91 4.707 2.91.625 0 1.211-.084 1.758-.253l-.079-5.43zm8.692-15.84h-5.664v21.133h5.664V884zm-5.996 26.602c0 .846.28 1.543.84 2.089.572.547 1.347.821 2.324.821.963 0 1.732-.274 2.304-.821.573-.546.86-1.243.86-2.089 0-.86-.293-1.563-.879-2.11-.573-.547-1.335-.82-2.285-.82-.951 0-1.719.273-2.305.82-.573.547-.859 1.25-.859 2.11zm29.687-16.231c0-3.255-.742-5.866-2.226-7.832-1.472-1.953-3.464-2.93-5.977-2.93-2.135 0-3.861.743-5.176 2.227v-9.961h-5.644v29.258h5.234l.195-2.071c1.368 1.641 3.152 2.461 5.352 2.461 2.604 0 4.629-.963 6.074-2.89 1.446-1.927 2.168-4.584 2.168-7.969v-.293zm-5.644.41c0 1.966-.352 3.483-1.055 4.551-.69 1.068-1.699 1.602-3.027 1.602-1.771 0-2.989-.677-3.653-2.032v-8.652c.69-1.393 1.921-2.09 3.692-2.09 2.695 0 4.043 2.207 4.043 6.621zm17.949-6.621c1.042 0 1.888.287 2.539.86.651.572.99 1.334 1.016 2.285h5.293c-.013-1.433-.404-2.748-1.172-3.946-.769-1.185-1.823-2.109-3.164-2.773-1.328-.651-2.8-.977-4.414-.977-3.021 0-5.404.957-7.149 2.871-1.745 1.928-2.617 4.584-2.617 7.969v.371c0 3.256.866 5.853 2.598 7.793 1.731 1.94 4.108 2.91 7.128 2.91 2.644 0 4.76-.755 6.348-2.265 1.602-1.498 2.416-3.496 2.442-5.996h-5.293c-.026 1.093-.365 1.979-1.016 2.656-.651.69-1.51 1.035-2.578 1.035-1.315 0-2.311-.482-2.988-1.445-.665-.951-.997-2.5-.997-4.649v-.586c0-2.174.332-3.737.997-4.687.664-.951 1.673-1.426 3.027-1.426zm18.027-4.16h-5.664v21.133h5.664V884zm-5.996 26.602c0 .846.28 1.543.84 2.089.573.547 1.348.821 2.324.821.964 0 1.732-.274 2.305-.821.573-.546.859-1.243.859-2.089 0-.86-.293-1.563-.879-2.11-.573-.547-1.334-.82-2.285-.82-.95 0-1.719.273-2.304.82-.573.547-.86 1.25-.86 2.11zm9.785-15.84c0 2.096.404 3.965 1.211 5.605.808 1.641 1.966 2.91 3.477 3.809 1.523.898 3.288 1.347 5.293 1.347 2.851 0 5.176-.872 6.972-2.617 1.81-1.745 2.819-4.114 3.028-7.109l.039-1.445c0-3.243-.905-5.847-2.715-7.813-1.81-1.953-4.238-2.93-7.285-2.93-3.047 0-5.482.977-7.305 2.93-1.81 1.953-2.715 4.609-2.715 7.969v.254zm5.645-.41c0-2.006.377-3.542 1.133-4.61.755-1.054 1.836-1.582 3.242-1.582 1.367 0 2.435.521 3.203 1.563.768 1.054 1.152 2.734 1.152 5.039 0 1.966-.384 3.489-1.152 4.57-.768 1.081-1.849 1.621-3.242 1.621-1.38 0-2.448-.54-3.203-1.621-.756-1.068-1.133-2.728-1.133-4.98zM363.664 914h6.152l-5.41-6.055h-4.59l3.848 6.055zm17.598-8.867l.176-2.442c1.51 1.888 3.535 2.832 6.074 2.832 2.239 0 3.906-.657 5-1.972 1.093-1.315 1.653-3.281 1.679-5.899V884h-5.644v13.516c0 1.198-.261 2.063-.781 2.597-.521.547-1.387.821-2.598.821-1.589 0-2.78-.677-3.574-2.032V884h-5.645v21.133h5.313zm26.308-10.41c0 3.294.736 5.918 2.207 7.871 1.485 1.953 3.509 2.929 6.075 2.929 2.057 0 3.756-.768 5.097-2.304V914h5.664v-30h-5.097l-.274 2.246c-1.406-1.758-3.216-2.637-5.43-2.637-2.486 0-4.485.977-5.996 2.93-1.497 1.966-2.246 4.694-2.246 8.184zm5.645-.411c0-1.979.345-3.496 1.035-4.55.69-1.055 1.693-1.582 3.008-1.582 1.745 0 2.975.735 3.691 2.207v8.34c-.703 1.471-1.92 2.207-3.652 2.207-2.721 0-4.082-2.207-4.082-6.622zm27.5-10.703c-3.099 0-5.625.951-7.578 2.852-1.94 1.901-2.91 4.434-2.91 7.598v.546c0 2.123.41 4.017 1.23 5.684.82 1.68 1.979 2.969 3.477 3.867 1.51.912 3.229 1.367 5.156 1.367 2.89 0 5.163-.911 6.816-2.734 1.667-1.823 2.5-4.407 2.5-7.754v-2.305h-13.457c.183-1.38.729-2.487 1.641-3.32.924-.833 2.09-1.25 3.496-1.25 2.174 0 3.874.788 5.098 2.363l2.773-3.105c-.846-1.198-1.992-2.135-3.437-2.813-1.446-.664-3.047-.996-4.805-.996zm-.645 17.344c-1.119 0-2.031-.377-2.734-1.133-.69-.755-1.133-1.836-1.328-3.242h7.851v.449c-.026 1.25-.364 2.214-1.015 2.891-.651.69-1.576 1.035-2.774 1.035zm21.641-6.191c0 3.32.736 5.944 2.207 7.871 1.484 1.927 3.516 2.89 6.094 2.89 2.265 0 4.069-.865 5.41-2.597l.371 2.207h4.961v-29.258h-5.664v9.941c-1.302-1.471-3.008-2.207-5.117-2.207-2.513 0-4.519.977-6.016 2.93-1.497 1.953-2.246 4.694-2.246 8.223zm5.644-.41c0-2.019.352-3.555 1.055-4.61.716-1.054 1.719-1.582 3.008-1.582 1.732 0 2.956.69 3.672 2.07v8.731c-.703 1.328-1.914 1.992-3.633 1.992-1.302 0-2.311-.527-3.027-1.582-.716-1.055-1.075-2.728-1.075-5.019zm30.508-8.204c-1.393-1.692-3.32-2.539-5.781-2.539-2.266 0-3.997.651-5.195 1.953-1.185 1.303-1.791 3.21-1.817 5.723v13.848h5.645V891.48c0-2.2 1.002-3.3 3.008-3.3 1.914 0 3.229.664 3.945 1.992v14.961h5.664V884h-5.312l-.157 2.148zm19.453-2.539c-3.099 0-5.625.951-7.578 2.852-1.94 1.901-2.91 4.434-2.91 7.598v.546c0 2.123.41 4.017 1.231 5.684.82 1.68 1.979 2.969 3.476 3.867 1.511.912 3.229 1.367 5.156 1.367 2.891 0 5.163-.911 6.817-2.734 1.666-1.823 2.5-4.407 2.5-7.754v-2.305h-13.457c.182-1.38.729-2.487 1.64-3.32.925-.833 2.09-1.25 3.497-1.25 2.174 0 3.873.788 5.097 2.363l2.774-3.105c-.847-1.198-1.993-2.135-3.438-2.813-1.445-.664-3.047-.996-4.805-.996zm-.644 17.344c-1.12 0-2.031-.377-2.734-1.133-.691-.755-1.133-1.836-1.329-3.242h7.852v.449c-.026 1.25-.365 2.214-1.016 2.891-.651.69-1.575 1.035-2.773 1.035zM517.18 914h6.152l-5.41-6.055h-4.59L517.18 914zm31.738-30.391c-3.099 0-5.625.951-7.578 2.852-1.94 1.901-2.91 4.434-2.91 7.598v.546c0 2.123.41 4.017 1.23 5.684.82 1.68 1.979 2.969 3.477 3.867 1.51.912 3.229 1.367 5.156 1.367 2.891 0 5.163-.911 6.816-2.734 1.667-1.823 2.5-4.407 2.5-7.754v-2.305h-13.457c.183-1.38.73-2.487 1.641-3.32.924-.833 2.09-1.25 3.496-1.25 2.175 0 3.874.788 5.098 2.363l2.773-3.105c-.846-1.198-1.992-2.135-3.437-2.813-1.446-.664-3.047-.996-4.805-.996zm-.645 17.344c-1.119 0-2.031-.377-2.734-1.133-.69-.755-1.133-1.836-1.328-3.242h7.851v.449c-.026 1.25-.364 2.214-1.015 2.891-.651.69-1.576 1.035-2.774 1.035zm24.004-11.113c0 .69-.345 1.23-1.035 1.621-.677.404-1.771.762-3.281 1.074-5.026 1.055-7.539 3.19-7.539 6.406 0 1.875.775 3.438 2.324 4.688 1.563 1.263 3.6 1.894 6.113 1.894 2.683 0 4.825-.631 6.426-1.894 1.615-1.263 2.422-2.904 2.422-4.922h-5.645c0 .807-.26 1.471-.781 1.992-.521.534-1.334.801-2.441.801-.951 0-1.686-.215-2.207-.645-.521-.429-.781-.976-.781-1.64 0-.625.293-1.133.878-1.524.599-.377 1.602-.709 3.008-.996 1.407-.273 2.591-.586 3.555-.937 2.982-1.094 4.473-2.988 4.473-5.684 0-1.927-.827-3.489-2.481-4.687-1.653-1.185-3.789-1.778-6.406-1.778-1.771 0-3.346.313-4.727.938-1.367.638-2.441 1.504-3.222 2.598-.782 1.106-1.172 2.298-1.172 3.574h5.351c.052-1.003.424-1.771 1.114-2.305.69-.534 1.614-.801 2.773-.801 1.081 0 1.895.202 2.442.606.559.416.839.957.839 1.621z" fill="#fff"/><path fill="#575050" d="M0 0h1920v960H0z"/><path d="M209 438c0-1.657 1.343-3 3-3h634c1.657 0 3 1.343 3 3v84c0 1.657-1.343 3-3 3H212c-1.657 0-3-1.343-3-3v-84z" fill="#fff"/><path d="M274.835 474.312c-.971-8.062-7.074-12.698-15.153-12.698-9.222 0-16.262 6.511-16.262 17.931 0 11.387 6.921 17.932 16.262 17.932 8.949 0 14.352-5.949 15.153-12.375l-7.466-.034c-.699 3.733-3.63 5.881-7.568 5.881-5.301 0-8.898-3.938-8.898-11.404 0-7.261 3.546-11.403 8.949-11.403 4.04 0 6.955 2.335 7.517 6.17h7.466zM281.328 497h7.381v-12.375h5.386L300.709 497h8.147l-7.415-13.568c3.972-1.705 6.171-5.165 6.171-9.938 0-6.937-4.585-11.403-12.511-11.403h-13.773V497zm7.381-18.307v-10.568h4.977c4.261 0 6.324 1.892 6.324 5.369 0 3.461-2.063 5.199-6.29 5.199h-5.011zM314.028 497h23.591v-6.085h-16.21v-8.335h14.931v-6.086h-14.931v-8.318h16.142v-6.085h-23.523V497zm36.608 0l2.59-7.96h12.597l2.591 7.96h7.909l-12.034-34.909h-9.511L342.726 497h7.91zm4.465-13.722l4.296-13.21h.273l4.295 13.21h-8.864zm55.784-8.966c-.971-8.062-7.074-12.698-15.153-12.698-9.222 0-16.262 6.511-16.262 17.931 0 11.387 6.921 17.932 16.262 17.932 8.949 0 14.352-5.949 15.153-12.375l-7.466-.034c-.699 3.733-3.63 5.881-7.568 5.881-5.301 0-8.898-3.938-8.898-11.404 0-7.261 3.546-11.403 8.949-11.403 4.04 0 6.955 2.335 7.517 6.17h7.466zm13.874-12.221h-7.381V497h7.381v-34.909zm39.352 17.454c0-11.42-7.091-17.931-16.347-17.931-9.307 0-16.347 6.511-16.347 17.931 0 11.37 7.04 17.932 16.347 17.932 9.256 0 16.347-6.511 16.347-17.932zm-7.483 0c0 7.398-3.512 11.404-8.864 11.404-5.369 0-8.864-4.006-8.864-11.404 0-7.397 3.495-11.403 8.864-11.403 5.352 0 8.864 4.006 8.864 11.403zm-11.472-20.829h5.131l5.199-7.756h-6.716l-3.614 7.756zm54.821 3.375h-7.347v21.954h-.307l-15.068-21.954h-6.477V497h7.381v-21.972h.255L493.602 497h6.375v-34.909zM531.959 497c10.636 0 17.08-6.58 17.08-17.489 0-10.875-6.444-17.42-16.978-17.42h-12.477V497h12.375zm-4.994-6.324v-22.261h4.704c6.546 0 10.006 3.341 10.006 11.096 0 7.79-3.46 11.165-10.023 11.165h-4.687zM555.706 497h23.591v-6.085h-16.21v-8.335h14.931v-6.086h-14.931v-8.318h16.142v-6.085h-23.523V497zm55.275 0c10.636 0 17.08-6.58 17.08-17.489 0-10.875-6.444-17.42-16.978-17.42h-12.477V497h12.375zm-4.994-6.324v-22.261h4.704c6.546 0 10.006 3.341 10.006 11.096 0 7.79-3.46 11.165-10.023 11.165h-4.687zm36.122-28.585h-7.381V497h7.381v-34.909zm26.209 10.04h7.074c-.102-6.222-5.216-10.517-12.988-10.517-7.654 0-13.262 4.227-13.228 10.568-.017 5.148 3.614 8.096 9.512 9.511l3.801.955c3.801.92 5.915 2.011 5.932 4.363-.017 2.557-2.438 4.296-6.188 4.296-3.835 0-6.596-1.773-6.835-5.267h-7.142c.187 7.551 5.591 11.454 14.062 11.454 8.523 0 13.535-4.074 13.552-10.466-.017-5.812-4.398-8.897-10.466-10.261l-3.137-.75c-3.034-.699-5.574-1.824-5.522-4.329 0-2.25 1.994-3.904 5.608-3.904 3.528 0 5.693 1.602 5.965 4.347zM682.034 497h23.591v-6.085h-16.21v-8.335h14.932v-6.086h-14.932v-8.318h16.142v-6.085h-23.523V497zm59.79-34.909h-7.347v21.954h-.307l-15.068-21.954h-6.477V497h7.38v-21.972h.256L735.449 497h6.375v-34.909zm-19.449-3.222c0-1.585.784-2.591 1.96-2.591.903 0 1.585.495 2.335 1.057.955.699 2.046 1.517 3.955 1.5 3.085-.017 5.505-2.42 5.54-6.733l-3.972-.119c-.017 1.568-.716 2.625-2.028 2.642-.853 0-1.569-.494-2.353-1.057-1.022-.699-2.165-1.517-3.937-1.5-3.103.017-5.54 2.421-5.54 6.75l4.04.051zm58.826 20.676c0-11.42-7.091-17.931-16.346-17.931-9.307 0-16.347 6.511-16.347 17.931 0 11.37 7.04 17.932 16.347 17.932 9.255 0 16.346-6.511 16.346-17.932zm-7.483 0c0 7.398-3.511 11.404-8.863 11.404-5.37 0-8.864-4.006-8.864-11.404 0-7.397 3.494-11.403 8.864-11.403 5.352 0 8.863 4.006 8.863 11.403zm33.088-7.414h7.074c-.102-6.222-5.216-10.517-12.989-10.517-7.653 0-13.261 4.227-13.227 10.568-.017 5.148 3.614 8.096 9.511 9.511l3.801.955c3.802.92 5.915 2.011 5.932 4.363-.017 2.557-2.437 4.296-6.187 4.296-3.836 0-6.597-1.773-6.836-5.267h-7.142c.188 7.551 5.591 11.454 14.063 11.454 8.523 0 13.534-4.074 13.551-10.466-.017-5.812-4.398-8.897-10.466-10.261l-3.136-.75c-3.034-.699-5.574-1.824-5.523-4.329 0-2.25 1.994-3.904 5.608-3.904 3.528 0 5.693 1.602 5.966 4.347z" fill="#000"/><path d="M212 436h634v-2H212v2zm636 2v84h2v-84h-2zm-2 86H212v2h634v-2zm-636-2v-84h-2v84h2zm2 2c-1.105 0-2-.895-2-2h-2c0 2.209 1.791 4 4 4v-2zm636-2c0 1.105-.895 2-2 2v2c2.209 0 4-1.791 4-4h-2zm-2-86c1.105 0 2 .895 2 2h2c0-2.209-1.791-4-4-4v2zm-634-2c-2.209 0-4 1.791-4 4h2c0-1.105.895-2 2-2v-2z" fill="#212121" fill-opacity=".25"/><path d="M873 438c0-1.657 1.343-3 3-3h831c1.66 0 3 1.343 3 3v84c0 1.657-1.34 3-3 3H876c-1.657 0-3-1.343-3-3v-84z" fill="#62FF02" fill-opacity=".35"/><path d="M920.409 497c10.636 0 17.08-6.58 17.08-17.489 0-10.875-6.444-17.42-16.978-17.42h-12.477V497h12.375zm-4.994-6.324v-22.261h4.704c6.546 0 10.006 3.341 10.006 11.096 0 7.79-3.46 11.165-10.023 11.165h-4.687zM944.156 497h23.591v-6.085h-16.21v-8.335h14.931v-6.086h-14.931v-8.318h16.142v-6.085h-23.523V497zm49.528-24.869h7.076c-.1-6.222-5.218-10.517-12.991-10.517-7.653 0-13.261 4.227-13.227 10.568-.017 5.148 3.614 8.096 9.511 9.511l3.802.955c3.801.92 5.914 2.011 5.931 4.363-.017 2.557-2.437 4.296-6.187 4.296-3.835 0-6.597-1.773-6.835-5.267h-7.142c.187 7.551 5.591 11.454 14.062 11.454 8.523 0 13.536-4.074 13.556-10.466-.02-5.812-4.402-8.897-10.471-10.261l-3.136-.75c-3.034-.699-5.574-1.824-5.523-4.329 0-2.25 1.995-3.904 5.608-3.904 3.529 0 5.693 1.602 5.966 4.347zM1012.62 497l2.59-7.96h12.6l2.59 7.96h7.91l-12.04-34.909h-9.51L1004.71 497h7.91zm4.47-13.722l4.29-13.21h.27l4.3 13.21h-8.86zM1043.71 497h7.38v-12.375h5.39l6.61 12.375h8.15l-7.42-13.568c3.97-1.705 6.17-5.165 6.17-9.938 0-6.937-4.58-11.403-12.51-11.403h-13.77V497zm7.38-18.307v-10.568h4.98c4.26 0 6.32 1.892 6.32 5.369 0 3.461-2.06 5.199-6.29 5.199h-5.01zM1076.41 497h7.38v-12.375h5.39l6.61 12.375h8.15l-7.42-13.568c3.97-1.705 6.17-5.165 6.17-9.938 0-6.937-4.58-11.403-12.51-11.403h-13.77V497zm7.38-18.307v-10.568h4.98c4.26 0 6.32 1.892 6.32 5.369 0 3.461-2.06 5.199-6.29 5.199h-5.01zm57.4.852c0-11.42-7.09-17.931-16.35-17.931-9.3 0-16.34 6.511-16.34 17.931 0 11.37 7.04 17.932 16.34 17.932 9.26 0 16.35-6.511 16.35-17.932zm-7.48 0c0 7.398-3.52 11.404-8.87 11.404-5.37 0-8.86-4.006-8.86-11.404 0-7.397 3.49-11.403 8.86-11.403 5.35 0 8.87 4.006 8.87 11.403zM1147.86 497h22.34v-6.085h-14.96v-28.824h-7.38V497zm28.43 0h22.35v-6.085h-14.97v-28.824h-7.38V497zm59.15-17.455c0-11.42-7.09-17.931-16.34-17.931-9.31 0-16.35 6.511-16.35 17.931 0 11.37 7.04 17.932 16.35 17.932 9.25 0 16.34-6.511 16.34-17.932zm-7.48 0c0 7.398-3.51 11.404-8.86 11.404-5.37 0-8.87-4.006-8.87-11.404 0-7.397 3.5-11.403 8.87-11.403 5.35 0 8.86 4.006 8.86 11.403zM1266.8 497c10.63 0 17.08-6.58 17.08-17.489 0-10.875-6.45-17.42-16.98-17.42h-12.48V497h12.38zm-5-6.324v-22.261h4.71c6.54 0 10 3.341 10 11.096 0 7.79-3.46 11.165-10.02 11.165h-4.69zm28.74 6.324h23.59v-6.085h-16.21v-8.335h14.94v-6.086h-14.94v-8.318h16.15v-6.085h-23.53V497zm42.9 0h7.38v-11.318h6.21c8.03 0 12.7-4.79 12.7-11.762 0-6.937-4.59-11.829-12.51-11.829h-13.78V497zm7.38-17.233v-11.642h4.98c4.26 0 6.33 2.318 6.33 5.795 0 3.461-2.07 5.847-6.29 5.847h-5.02zM1367.71 497l2.59-7.96h12.59l2.6 7.96h7.9l-12.03-34.909h-9.51L1359.8 497h7.91zm4.46-13.722l4.3-13.21h.27l4.3 13.21h-8.87zm48.13-9.903h7.5c-.95-6.903-7.04-11.761-14.93-11.761-9.22 0-16.33 6.647-16.33 17.966 0 11.045 6.65 17.897 16.49 17.897 8.81 0 15.1-5.574 15.1-14.761v-4.398h-14.61v5.557h7.5c-.1 4.33-3.05 7.074-7.96 7.074-5.54 0-9.03-4.142-9.03-11.438 0-7.261 3.63-11.369 8.96-11.369 3.8 0 6.38 1.96 7.31 5.233zm21.95-11.284h-7.38V497h7.38v-34.909zm36.47 0h-7.34v21.954h-.31L1456 462.091h-6.48V497h7.39v-21.972h.25L1472.35 497h6.37v-34.909zM1492.04 497l2.59-7.96h12.6l2.59 7.96h7.91l-12.04-34.909h-9.51L1484.13 497h7.91zm4.46-13.722l4.3-13.21h.27l4.3 13.21h-8.87zm44.77-11.147h7.07c-.1-6.222-5.21-10.517-12.99-10.517-7.65 0-13.26 4.227-13.22 10.568-.02 5.148 3.61 8.096 9.51 9.511l3.8.955c3.8.92 5.91 2.011 5.93 4.363-.02 2.557-2.44 4.296-6.19 4.296-3.83 0-6.59-1.773-6.83-5.267h-7.14c.18 7.551 5.59 11.454 14.06 11.454 8.52 0 13.53-4.074 13.55-10.466-.02-5.812-4.4-8.897-10.47-10.261l-3.13-.75c-3.04-.699-5.58-1.824-5.53-4.329 0-2.25 2-3.904 5.61-3.904 3.53 0 5.7 1.602 5.97 4.347zM1575.15 497h7.19l6.64-22.824h.27L1595.9 497h7.19l9.99-34.909h-8.06l-5.78 24.307h-.31l-6.36-24.307h-6.9l-6.38 24.256h-.29l-5.77-24.256h-8.07l9.99 34.909zm43.08 0h23.59v-6.085h-16.21v-8.335h14.93v-6.086h-14.93v-8.318h16.14v-6.085h-23.52V497zm30.59 0h14.91c7.84 0 12.02-4.091 12.02-9.648 0-5.164-3.7-8.284-7.67-8.471v-.341c3.63-.818 6.31-3.392 6.31-7.5 0-5.233-3.89-8.949-11.59-8.949h-13.98V497zm7.38-6.034v-9.273h6.19c3.54 0 5.74 2.046 5.74 4.926 0 2.625-1.79 4.347-5.91 4.347h-6.02zm0-14.267v-8.642h5.61c3.27 0 5.13 1.687 5.13 4.21 0 2.761-2.25 4.432-5.27 4.432h-5.47z" fill="#fff" fill-opacity=".9"/><path d="M209 585c0-1.657 1.343-3 3-3h747c1.657 0 3 1.343 3 3v84c0 1.657-1.343 3-3 3H212c-1.657 0-3-1.343-3-3v-84z" fill="#0500F8" fill-opacity=".45"/><path d="M244.034 644h7.381v-11.318h6.204c8.029 0 12.699-4.79 12.699-11.762 0-6.937-4.585-11.829-12.511-11.829h-13.773V644zm7.381-17.233v-11.642h4.977c4.261 0 6.324 2.318 6.324 5.795 0 3.461-2.063 5.847-6.29 5.847h-5.011zM276.312 644h7.381v-14.42h14.983V644h7.363v-34.909h-7.363v14.403h-14.983v-14.403h-7.381V644zm69.092-17.455c0-11.42-7.091-17.931-16.346-17.931-9.307 0-16.347 6.511-16.347 17.931 0 11.37 7.04 17.932 16.347 17.932 9.255 0 16.346-6.511 16.346-17.932zm-7.483 0c0 7.398-3.511 11.404-8.863 11.404-5.37 0-8.864-4.006-8.864-11.404 0-7.397 3.494-11.403 8.864-11.403 5.352 0 8.863 4.006 8.863 11.403zm11.274-11.369h10.688V644h7.295v-28.824h10.688v-6.085h-28.671v6.085zm65.125 11.369c0-11.42-7.091-17.931-16.347-17.931-9.307 0-16.346 6.511-16.346 17.931 0 11.37 7.039 17.932 16.346 17.932 9.256 0 16.347-6.511 16.347-17.932zm-7.483 0c0 7.398-3.511 11.404-8.864 11.404-5.369 0-8.863-4.006-8.863-11.404 0-7.397 3.494-11.403 8.863-11.403 5.353 0 8.864 4.006 8.864 11.403zm33.088-7.414h7.074c-.103-6.222-5.216-10.517-12.989-10.517-7.653 0-13.261 4.227-13.227 10.568-.017 5.148 3.613 8.096 9.511 9.511l3.801.955c3.801.92 5.915 2.011 5.932 4.363-.017 2.557-2.438 4.296-6.188 4.296-3.835 0-6.596-1.773-6.835-5.267h-7.142c.188 7.551 5.591 11.454 14.063 11.454 8.522 0 13.534-4.074 13.551-10.466-.017-5.812-4.398-8.897-10.466-10.261l-3.136-.75c-3.035-.699-5.574-1.824-5.523-4.329 0-2.25 1.994-3.904 5.608-3.904 3.528 0 5.693 1.602 5.966 4.347zM453.64 644h7.381v-14.42h14.983V644h7.364v-34.909h-7.364v14.403h-14.983v-14.403h-7.381V644zm69.092-17.455c0-11.42-7.091-17.931-16.346-17.931-9.307 0-16.347 6.511-16.347 17.931 0 11.37 7.04 17.932 16.347 17.932 9.255 0 16.346-6.511 16.346-17.932zm-7.483 0c0 7.398-3.511 11.404-8.863 11.404-5.37 0-8.864-4.006-8.864-11.404 0-7.397 3.494-11.403 8.864-11.403 5.352 0 8.863 4.006 8.863 11.403zM529.4 644h7.38v-11.318h6.205c8.028 0 12.699-4.79 12.699-11.762 0-6.937-4.585-11.829-12.512-11.829H529.4V644zm7.38-17.233v-11.642h4.978c4.261 0 6.324 2.318 6.324 5.795 0 3.461-2.063 5.847-6.29 5.847h-5.012zm47.775 17.744c3.052 0 6.358-.852 8.932-2.863l2.114 2.352h7.568l-5.25-6.017c1.943-2.574 3.17-6.273 3.17-11.011h-6.017c0 2.284-.562 4.312-1.483 6.034l-5.761-6.614 2.046-1.466c2.931-2.114 4.636-4.773 4.636-8.062 0-4.466-3.46-8.233-9.068-8.233-5.728 0-9.529 3.903-9.529 8.966 0 3.102 1.5 5.693 3.324 8.011-3.801 2.608-6.358 5.08-6.358 9.119 0 5.506 4.415 9.784 11.676 9.784zm5.012-7.227c-1.466.904-3.068 1.398-4.654 1.398-3.034 0-4.994-1.875-4.994-4.364 0-1.329.903-2.863 2.83-4.261l.204-.137 6.614 7.364zm-5.233-15.034c-1.296-1.636-2.199-3.085-2.199-4.534 0-1.756 1.329-3.222 3.358-3.239 2.045-.017 3.204 1.415 3.204 2.796 0 1.466-.801 2.676-2.539 3.784l-1.824 1.193zm42.887-13.159h-7.381V644h7.381v-34.909zM634.493 644h22.347v-6.085h-14.966v-28.824h-7.381V644zm49.997-34.909v22.04c0 3.988-2.795 6.869-7.091 6.869-4.278 0-7.09-2.881-7.09-6.869v-22.04h-7.381v22.67c0 7.637 5.761 12.733 14.471 12.733 8.677 0 14.472-5.096 14.472-12.733v-22.67h-7.381zm33.591 10.04h7.074c-.102-6.222-5.216-10.517-12.989-10.517-7.653 0-13.261 4.227-13.227 10.568-.017 5.148 3.614 8.096 9.511 9.511l3.801.955c3.802.92 5.915 2.011 5.932 4.363-.017 2.557-2.437 4.296-6.187 4.296-3.835 0-6.597-1.773-6.835-5.267h-7.143c.188 7.551 5.591 11.454 14.063 11.454 8.523 0 13.534-4.074 13.551-10.466-.017-5.812-4.398-8.897-10.466-10.261l-3.136-.75c-3.034-.699-5.574-1.824-5.523-4.329 0-2.25 1.994-3.904 5.608-3.904 3.528 0 5.693 1.602 5.966 4.347zm12.386-3.955h10.688V644h7.295v-28.824h10.688v-6.085h-28.671v6.085zM765.059 644h7.381v-12.375h5.386L784.44 644h8.148l-7.415-13.568c3.971-1.705 6.17-5.165 6.17-9.938 0-6.937-4.585-11.403-12.511-11.403h-13.773V644zm7.381-18.307v-10.568h4.977c4.261 0 6.324 1.892 6.324 5.369 0 3.461-2.063 5.199-6.29 5.199h-5.011zM803.776 644l2.591-7.96h12.597l2.591 7.96h7.909l-12.034-34.909h-9.512L795.867 644h7.909zm4.466-13.722l4.295-13.21h.273l4.296 13.21h-8.864zm20.981-15.102h10.688V644h7.295v-28.824h10.688v-6.085h-28.671v6.085zm65.125 11.369c0-11.42-7.091-17.931-16.347-17.931-9.306 0-16.346 6.511-16.346 17.931 0 11.37 7.04 17.932 16.346 17.932 9.256 0 16.347-6.511 16.347-17.932zm-7.483 0c0 7.398-3.511 11.404-8.864 11.404-5.369 0-8.863-4.006-8.863-11.404 0-7.397 3.494-11.403 8.863-11.403 5.353 0 8.864 4.006 8.864 11.403zM901.015 644h7.381v-12.375h5.386L920.396 644h8.148l-7.415-13.568c3.972-1.705 6.17-5.165 6.17-9.938 0-6.937-4.585-11.403-12.511-11.403h-13.773V644zm7.381-18.307v-10.568h4.977c4.262 0 6.324 1.892 6.324 5.369 0 3.461-2.062 5.199-6.29 5.199h-5.011z" fill="#fff" fill-opacity=".9"/><path d="M256.605 293.116h15.327c-.222-13.48-11.301-22.786-28.142-22.786-16.583 0-28.733 9.159-28.659 22.897-.037 11.154 7.829 17.543 20.608 20.608l8.235 2.068c8.236 1.995 12.816 4.358 12.853 9.455-.037 5.54-5.282 9.307-13.407 9.307-8.309 0-14.292-3.841-14.809-11.412h-15.475c.407 16.361 12.114 24.818 30.469 24.818 18.466 0 29.324-8.827 29.361-22.676-.037-12.594-9.528-19.279-22.676-22.233l-6.796-1.625c-6.574-1.514-12.076-3.952-11.966-9.381 0-4.875 4.321-8.457 12.151-8.457 7.645 0 12.335 3.471 12.926 9.417zM283.722 347h51.114v-13.185h-35.122v-18.059h32.352v-13.185h-32.352v-18.023h34.974v-13.184h-50.966V347zm63.68 0h15.991v-26.812h11.671L389.393 347h17.654l-16.065-29.398c8.605-3.693 13.369-11.19 13.369-21.531 0-15.031-9.935-24.707-27.108-24.707h-29.841V347zm15.991-39.665v-22.897h10.785c9.233 0 13.701 4.099 13.701 11.633 0 7.497-4.468 11.264-13.628 11.264h-10.858zm102.412-11.523h16.25c-2.068-14.957-15.252-25.482-32.352-25.482-19.98 0-35.381 14.403-35.381 38.926 0 23.932 14.404 38.778 35.714 38.778 19.093 0 32.721-12.077 32.721-31.983v-9.528h-31.65v12.039h16.25c-.222 9.381-6.611 15.327-17.248 15.327-12.002 0-19.573-8.974-19.573-24.781 0-15.733 7.866-24.634 19.426-24.634 8.235 0 13.812 4.248 15.843 11.338zm44.956-24.448h-15.992V347h15.992v-75.636zM547.988 347h15.991v-24.523h13.444c17.394 0 27.514-10.378 27.514-25.483 0-15.031-9.935-25.63-27.108-25.63h-29.841V347zm15.991-37.338v-25.224h10.784c9.233 0 13.702 5.022 13.702 12.556 0 7.497-4.469 12.668-13.628 12.668h-10.858zM619.626 347l5.614-17.247h27.293L658.146 347h17.137l-26.074-75.636h-20.608L602.49 347h17.136zm9.677-29.73l9.306-28.622h.591l9.307 28.622h-19.204zM684.386 347h48.418v-13.185h-32.426v-62.451h-15.992V347zm73.975 0l5.613-17.247h27.293L796.881 347h17.136l-26.074-75.636h-20.608L741.224 347h17.137zm9.676-29.73l9.307-28.622h.591l9.306 28.622h-19.204zm118.265-19.426c-2.105-17.469-15.327-27.514-32.833-27.514-19.98 0-35.232 14.108-35.232 38.852 0 24.67 14.994 38.852 35.232 38.852 19.39 0 31.097-12.889 32.833-26.812l-16.176-.074c-1.514 8.088-7.867 12.741-16.398 12.741-11.486 0-19.278-8.531-19.278-24.707 0-15.733 7.681-24.708 19.389-24.708 8.753 0 15.068 5.06 16.287 13.37h16.176zm27.459-26.48h-15.992V347h15.992v-75.636zm82.662 37.818c0-24.744-15.363-38.852-35.417-38.852-20.165 0-35.418 14.108-35.418 38.852 0 24.633 15.253 38.852 35.418 38.852 20.054 0 35.417-14.108 35.417-38.852zm-16.213 0c0 16.028-7.608 24.707-19.204 24.707-11.634 0-19.205-8.679-19.205-24.707 0-16.029 7.571-24.708 19.205-24.708 11.596 0 19.204 8.679 19.204 24.708zm69.09-16.066h15.33c-.22-13.48-11.3-22.786-28.14-22.786-16.59 0-28.74 9.159-28.66 22.897-.04 11.154 7.83 17.543 20.6 20.608l8.24 2.068c8.24 1.995 12.82 4.358 12.85 9.455-.03 5.54-5.28 9.307-13.4 9.307-8.31 0-14.3-3.841-14.81-11.412h-15.48c.41 16.361 12.12 24.818 30.47 24.818 18.47 0 29.32-8.827 29.36-22.676-.04-12.594-9.53-19.279-22.67-22.233l-6.8-1.625c-6.57-1.514-12.08-3.952-11.97-9.381 0-4.875 4.32-8.457 12.15-8.457 7.65 0 12.34 3.471 12.93 9.417zm92.22 0h15.33c-.23-13.48-11.31-22.786-28.15-22.786-16.58 0-28.73 9.159-28.66 22.897-.03 11.154 7.83 17.543 20.61 20.608l8.24 2.068c8.23 1.995 12.81 4.358 12.85 9.455-.04 5.54-5.28 9.307-13.41 9.307-8.31 0-14.29-3.841-14.81-11.412h-15.47c.41 16.361 12.11 24.818 30.47 24.818 18.47 0 29.32-8.827 29.36-22.676-.04-12.594-9.53-19.279-22.68-22.233l-6.79-1.625c-6.58-1.514-12.08-3.952-11.97-9.381 0-4.875 4.32-8.457 12.15-8.457 7.65 0 12.34 3.471 12.93 9.417zM1179.95 347l5.61-17.247h27.29l5.62 17.247h17.13l-26.07-75.636h-20.61L1162.81 347h17.14zm9.67-29.73l9.31-28.622h.59l9.31 28.622h-19.21zm55.09 29.73h48.41v-13.185h-32.42v-62.451h-15.99V347zm59-75.636V347h15.52v-49.415h.62l19.58 49.046h10.56l19.57-48.861h.63V347h15.51v-75.636h-19.72l-20.83 50.818h-.88l-20.83-50.818h-19.73zM1398.88 347h51.11v-13.185h-35.12v-18.059h32.35v-13.185h-32.35v-18.023h34.97v-13.184h-50.96V347zm63.68 0h15.99v-26.812h11.67L1504.55 347h17.65l-16.06-29.398c8.6-3.693 13.37-11.19 13.37-21.531 0-15.031-9.94-24.707-27.11-24.707h-29.84V347zm15.99-39.665v-22.897h10.78c9.24 0 13.71 4.099 13.71 11.633 0 7.497-4.47 11.264-13.63 11.264h-10.86zm121.76 1.847c0-24.744-15.36-38.852-35.41-38.852-20.17 0-35.42 14.108-35.42 38.852 0 24.633 15.25 38.852 35.42 38.852 20.05 0 35.41-14.108 35.41-38.852zm-16.21 0c0 16.028-7.61 24.707-19.2 24.707-11.64 0-19.21-8.679-19.21-24.707 0-16.029 7.57-24.708 19.21-24.708 11.59 0 19.2 8.679 19.2 24.708zm-24.85-45.131h11.11l11.27-16.804h-14.55l-7.83 16.804zm116.17 7.313h-15.91v47.568h-.67l-32.65-47.568h-14.03V347h15.99v-47.605h.56l32.9 47.605h13.81v-75.636z" fill="#fff" fill-opacity=".95"/><path d="M28.3409 933.642c-.3239-2.412-2.267-3.903-5.5739-3.903-3.3494 0-5.5568 1.551-5.5482 4.073-.0086 1.961 1.2272 3.231 3.784 3.742l2.2671.452c1.142.23 1.6619.647 1.679 1.304-.0171.775-.8608 1.329-2.1307 1.329-1.2955 0-2.1563-.554-2.3779-1.619l-3.571.187c.3409 2.506 2.4716 4.049 5.9404 4.049 3.392 0 5.821-1.73 5.8295-4.313-.0085-1.892-1.2443-3.025-3.7841-3.545l-2.3693-.478c-1.2188-.264-1.6705-.681-1.6619-1.312-.0086-.784.8778-1.296 2.0028-1.296 1.2614 0 2.0114.691 2.1903 1.535l3.3239-.205zm2.5845 14.267h3.6307v-7.006h.1108c.5028 1.091 1.6023 2.31 3.7159 2.31 2.983 0 5.3097-2.361 5.3097-6.741 0-4.5-2.429-6.733-5.3012-6.733-2.1903 0-3.2386 1.304-3.7244 2.369h-.1619v-2.199h-3.5796v18zm3.554-11.454c0-2.336.9886-3.827 2.7528-3.827 1.7983 0 2.7529 1.56 2.7529 3.827 0 2.284-.9716 3.869-2.7529 3.869-1.7471 0-2.7528-1.534-2.7528-3.869zm15.3665 6.792c1.9346 0 3.1875-.844 3.8267-2.062h.1023V943h3.4431v-8.83c0-3.119-2.642-4.431-5.5568-4.431-3.1363 0-5.1988 1.5-5.7017 3.886l3.358.273c.2471-.87 1.0227-1.509 2.3267-1.509 1.2358 0 1.9432.622 1.9432 1.696v.051c0 .844-.8949.955-3.1705 1.176-2.5909.239-4.9176 1.108-4.9176 4.032 0 2.591 1.8494 3.903 4.3466 3.903zm1.0398-2.506c-1.1165 0-1.9177-.519-1.9177-1.517 0-1.022.8438-1.525 2.1222-1.704.7926-.111 2.0881-.298 2.5227-.588v1.389c0 1.372-1.1335 2.42-2.7272 2.42zm12.7798-15.196h-3.6307V943h3.6307v-17.455zm6.6413 17.702c1.9347 0 3.1875-.844 3.8267-2.062h.1023V943h3.4432v-8.83c0-3.119-2.6421-4.431-5.5568-4.431-3.1364 0-5.1989 1.5-5.7017 3.886l3.3579.273c.2472-.87 1.0227-1.509 2.3267-1.509 1.2358 0 1.9432.622 1.9432 1.696v.051c0 .844-.8949.955-3.1705 1.176-2.5909.239-4.9176 1.108-4.9176 4.032 0 2.591 1.8495 3.903 4.3466 3.903zm1.0398-2.506c-1.1165 0-1.9176-.519-1.9176-1.517 0-1.022.8437-1.525 2.1221-1.704.7927-.111 2.0881-.298 2.5228-.588v1.389c0 1.372-1.1336 2.42-2.7273 2.42zm15.0639 2.515c3.4858 0 5.6761-2.046 5.8466-5.054H88.831c-.2131 1.397-1.1336 2.182-2.3779 2.182-1.696 0-2.7954-1.424-2.7954-3.929 0-2.472 1.1079-3.887 2.7954-3.887 1.3296 0 2.1818.878 2.3779 2.182h3.4261c-.1534-3.026-2.446-5.011-5.8636-5.011-3.9716 0-6.4262 2.752-6.4262 6.767 0 3.98 2.412 6.75 6.4432 6.75zm8.1712-.256h3.6307v-13.091h-3.6307V943zm1.8238-14.778c1.0824 0 1.9688-.827 1.9688-1.841 0-1.006-.8864-1.833-1.9688-1.833-1.0738 0-1.9602.827-1.9602 1.833 0 1.014.8864 1.841 1.9602 1.841zm10.6305 15.034c3.971 0 6.443-2.719 6.443-6.75 0-4.057-2.472-6.767-6.443-6.767-3.972 0-6.444 2.71-6.444 6.767 0 4.031 2.472 6.75 6.444 6.75zm.017-2.813c-1.833 0-2.77-1.679-2.77-3.963s.937-3.971 2.77-3.971c1.798 0 2.735 1.687 2.735 3.971s-.937 3.963-2.735 3.963zm19.679-6.801c-.324-2.412-2.268-3.903-5.574-3.903-3.35 0-5.557 1.551-5.549 4.073-.008 1.961 1.228 3.231 3.784 3.742l2.268.452c1.142.23 1.661.647 1.678 1.304-.017.775-.86 1.329-2.13 1.329-1.296 0-2.156-.554-2.378-1.619l-3.571.187c.341 2.506 2.472 4.049 5.94 4.049 3.392 0 5.821-1.73 5.83-4.313-.009-1.892-1.244-3.025-3.784-3.545l-2.37-.478c-1.218-.264-1.67-.681-1.662-1.312-.008-.784.878-1.296 2.003-1.296 1.262 0 2.012.691 2.191 1.535l3.324-.205zm13.476 0c-.324-2.412-2.267-3.903-5.574-3.903-3.349 0-5.557 1.551-5.548 4.073-.009 1.961 1.227 3.231 3.784 3.742l2.267.452c1.142.23 1.662.647 1.679 1.304-.017.775-.861 1.329-2.131 1.329-1.295 0-2.156-.554-2.377-1.619l-3.571.187c.34 2.506 2.471 4.049 5.94 4.049 3.392 0 5.821-1.73 5.829-4.313-.008-1.892-1.244-3.025-3.784-3.545l-2.369-.478c-1.219-.264-1.67-.681-1.662-1.312-.008-.784.878-1.296 2.003-1.296 1.261 0 2.011.691 2.19 1.535l3.324-.205zm6.318 9.605c1.934 0 3.187-.844 3.826-2.062h.103V943h3.443v-8.83c0-3.119-2.642-4.431-5.557-4.431-3.136 0-5.199 1.5-5.702 3.886l3.358.273c.247-.87 1.023-1.509 2.327-1.509 1.236 0 1.943.622 1.943 1.696v.051c0 .844-.895.955-3.17 1.176-2.591.239-4.918 1.108-4.918 4.032 0 2.591 1.849 3.903 4.347 3.903zm1.039-2.506c-1.116 0-1.917-.519-1.917-1.517 0-1.022.843-1.525 2.122-1.704.792-.111 2.088-.298 2.523-.588v1.389c0 1.372-1.134 2.42-2.728 2.42zm12.78-15.196h-3.631V943h3.631v-17.455zM163.254 943h3.63v-7.858c0-1.449.921-2.412 2.131-2.412 1.193 0 1.994.818 1.994 2.105V943h3.52v-7.994c0-1.355.776-2.276 2.097-2.276 1.159 0 2.028.725 2.028 2.182V943h3.622v-8.804c0-2.838-1.687-4.457-4.125-4.457-1.917 0-3.409.98-3.946 2.48h-.136c-.418-1.517-1.756-2.48-3.554-2.48-1.764 0-3.102.937-3.648 2.48h-.153v-2.31h-3.46V943zm27.856.256c3.239 0 5.421-1.577 5.932-4.006l-3.358-.222c-.367.998-1.304 1.517-2.514 1.517-1.816 0-2.966-1.201-2.966-3.153v-.008h8.915v-.998c0-4.448-2.694-6.647-6.154-6.647-3.852 0-6.349 2.735-6.349 6.775 0 4.151 2.463 6.742 6.494 6.742zm-2.906-8.122c.077-1.492 1.21-2.685 2.821-2.685 1.577 0 2.667 1.125 2.676 2.685h-5.497zM199.488 943h3.631v-7.406c0-1.611 1.176-2.719 2.778-2.719.503 0 1.193.085 1.534.196v-3.222c-.324-.076-.775-.127-1.142-.127-1.466 0-2.668.852-3.145 2.471h-.136v-2.284h-3.52V943zm15.126.256c3.971 0 6.443-2.719 6.443-6.75 0-4.057-2.472-6.767-6.443-6.767-3.972 0-6.444 2.71-6.444 6.767 0 4.031 2.472 6.75 6.444 6.75zm.017-2.813c-1.833 0-2.77-1.679-2.77-3.963s.937-3.971 2.77-3.971c1.798 0 2.735 1.687 2.735 3.971s-.937 3.963-2.735 3.963zm12.417-5.011c.009-1.688 1.014-2.676 2.48-2.676 1.458 0 2.336.954 2.327 2.556V943h3.631v-8.335c0-3.051-1.79-4.926-4.517-4.926-1.943 0-3.35.954-3.938 2.48h-.153v-2.31h-3.46V943h3.63v-7.568zm22.728 12.596c2.429 0 4.807-.571 5.872-1.176l-.843-2.471c-.912.375-2.872.869-4.833.869-5.557 0-8.574-2.949-8.591-8.335.017-4.875 2.796-8.549 8.463-8.549 4.1 0 7.91 1.961 7.901 7.313.009 3.332-.605 4.849-1.781 4.849-.588 0-.946-.443-.955-1.235v-8.319h-2.667v.955h-.12c-.289-.75-2.096-1.457-4.014-1.168-2.275.333-4.73 2.199-4.747 6.154.017 4.014 2.301 6.068 4.994 6.213 1.935.111 3.674-.699 4.074-1.73h.102c.188 1.176.972 1.977 2.949 1.832 3.682-.204 5.088-3.17 5.08-7.355.008-6.06-3.997-10.253-10.773-10.253-7.329 0-11.531 4.543-11.54 11.395.009 6.963 4.176 11.011 11.429 11.011zm-.392-7.704c-2.224 0-2.974-1.705-2.983-3.512.009-1.943 1.074-3.213 2.966-3.213 2.156 0 2.804 1.142 2.813 3.188.025 2.318-.708 3.537-2.796 3.537zm19.588 7.858c3.741 0 6.4-1.705 6.4-5.054v-13.219h-3.605v2.199h-.136c-.486-1.065-1.551-2.369-3.742-2.369-2.872 0-5.301 2.233-5.301 6.69 0 4.355 2.361 6.383 5.31 6.383 2.088 0 3.255-1.048 3.733-2.13h.153v2.395c0 1.798-1.15 2.497-2.727 2.497-1.602 0-2.412-.699-2.71-1.492l-3.358.452c.434 2.063 2.454 3.648 5.983 3.648zm.076-8.097c-1.781 0-2.753-1.415-2.753-3.673 0-2.224.955-3.784 2.753-3.784 1.764 0 2.753 1.491 2.753 3.784 0 2.31-1.006 3.673-2.753 3.673zm9.213 2.915h3.631v-7.858c0-1.449.92-2.412 2.131-2.412 1.193 0 1.994.818 1.994 2.105V943h3.52v-7.994c0-1.355.775-2.276 2.097-2.276 1.159 0 2.028.725 2.028 2.182V943h3.622v-8.804c0-2.838-1.687-4.457-4.125-4.457-1.918 0-3.409.98-3.946 2.48h-.136c-.418-1.517-1.756-2.48-3.554-2.48-1.764 0-3.103.937-3.648 2.48h-.153v-2.31h-3.461V943zm25.624.247c1.935 0 3.187-.844 3.827-2.062h.102V943h3.443v-8.83c0-3.119-2.642-4.431-5.557-4.431-3.136 0-5.199 1.5-5.701 3.886l3.358.273c.247-.87 1.022-1.509 2.326-1.509 1.236 0 1.943.622 1.943 1.696v.051c0 .844-.894.955-3.17 1.176-2.591.239-4.918 1.108-4.918 4.032 0 2.591 1.85 3.903 4.347 3.903zm1.04-2.506c-1.117 0-1.918-.519-1.918-1.517 0-1.022.844-1.525 2.122-1.704.793-.111 2.088-.298 2.523-.588v1.389c0 1.372-1.134 2.42-2.727 2.42zm9.149 2.259h3.631v-13.091h-3.631V943zm1.824-14.778c1.082 0 1.968-.827 1.968-1.841 0-1.006-.886-1.833-1.968-1.833-1.074 0-1.96.827-1.96 1.833 0 1.014.886 1.841 1.96 1.841zm8.346-2.677h-3.631V943h3.631v-17.455zm5.03 17.677c1.091 0 2.037-.912 2.046-2.046-.009-1.116-.955-2.028-2.046-2.028-1.125 0-2.054.912-2.045 2.028-.009 1.134.92 2.046 2.045 2.046zm10.941.034c3.486 0 5.676-2.046 5.847-5.054h-3.426c-.213 1.397-1.134 2.182-2.378 2.182-1.696 0-2.796-1.424-2.796-3.929 0-2.472 1.108-3.887 2.796-3.887 1.329 0 2.182.878 2.378 2.182h3.426c-.154-3.026-2.446-5.011-5.864-5.011-3.971 0-6.426 2.752-6.426 6.767 0 3.98 2.412 6.75 6.443 6.75zm14.086 0c3.972 0 6.443-2.719 6.443-6.75 0-4.057-2.471-6.767-6.443-6.767-3.971 0-6.443 2.71-6.443 6.767 0 4.031 2.472 6.75 6.443 6.75zm.017-2.813c-1.832 0-2.77-1.679-2.77-3.963s.938-3.971 2.77-3.971c1.798 0 2.736 1.687 2.736 3.971s-.938 3.963-2.736 3.963zm8.787 2.557h3.631v-7.858c0-1.449.92-2.412 2.13-2.412 1.194 0 1.995.818 1.995 2.105V943h3.52v-7.994c0-1.355.775-2.276 2.096-2.276 1.159 0 2.029.725 2.029 2.182V943h3.622v-8.804c0-2.838-1.688-4.457-4.125-4.457-1.918 0-3.409.98-3.946 2.48h-.137c-.417-1.517-1.755-2.48-3.554-2.48-1.764 0-3.102.937-3.647 2.48h-.154v-2.31h-3.46V943z" fill="#fff"/><path d="M26.9858 871.565h3.5369c-.0511-3.11-2.6079-5.258-6.4943-5.258-3.8267 0-6.6307 2.113-6.6136 5.284-.0086 2.574 1.8068 4.048 4.7557 4.756l1.9005.477c1.9006.46 2.9574 1.006 2.9659 2.182-.0085 1.278-1.2187 2.147-3.0937 2.147-1.9176 0-3.2983-.886-3.4176-2.633h-3.5711c.0938 3.775 2.7955 5.727 7.0313 5.727 4.2614 0 6.767-2.037 6.7756-5.233-.0086-2.906-2.1989-4.449-5.233-5.13l-1.5682-.375c-1.517-.35-2.7869-.912-2.7613-2.165 0-1.125.9971-1.952 2.8039-1.952 1.7642 0 2.8466.801 2.983 2.173zm9.9481-5.02h-3.6903V884h3.6903v-17.455zm7.9262 3.043h5.3437V884h3.6478v-14.412h5.3437v-3.043H44.8601v3.043zM61.5561 884h11.7955v-3.043h-8.1052v-4.167h7.466v-3.043h-7.466v-4.159h8.0711v-3.043H61.5561V884zM93.38 872.188h3.75c-.4773-3.452-3.5199-5.881-7.4659-5.881-4.6108 0-8.1648 3.324-8.1648 8.983 0 5.522 3.3239 8.949 8.2415 8.949 4.4062 0 7.5511-2.787 7.5511-7.381v-2.199h-7.304v2.779h3.75c-.0511 2.164-1.5255 3.536-3.9801 3.536-2.7699 0-4.517-2.071-4.517-5.718 0-3.631 1.8153-5.685 4.4829-5.685 1.9006 0 3.1875.98 3.6563 2.617zm17.465-5.643v11.02c0 1.995-1.398 3.435-3.545 3.435-2.139 0-3.546-1.44-3.546-3.435v-11.02h-3.69v11.336c0 3.818 2.881 6.366 7.236 6.366 4.338 0 7.236-2.548 7.236-6.366v-11.336h-3.691zm16.195 5.02h3.537c-.051-3.11-2.608-5.258-6.494-5.258-3.827 0-6.631 2.113-6.614 5.284-.008 2.574 1.807 4.048 4.756 4.756l1.901.477c1.9.46 2.957 1.006 2.966 2.182-.009 1.278-1.219 2.147-3.094 2.147-1.918 0-3.298-.886-3.418-2.633h-3.571c.094 3.775 2.796 5.727 7.031 5.727 4.262 0 6.768-2.037 6.776-5.233-.008-2.906-2.199-4.449-5.233-5.13l-1.568-.375c-1.517-.35-2.787-.912-2.761-2.165 0-1.125.997-1.952 2.804-1.952 1.764 0 2.846.801 2.982 2.173zm5.594-1.977h5.343V884h3.648v-14.412h5.344v-3.043h-14.335v3.043zM150.182 884l1.295-3.98h6.299l1.295 3.98h3.955l-6.017-17.455h-4.756L146.227 884h3.955zm2.233-6.861l2.147-6.605h.137l2.148 6.605h-4.432zm18.266-10.594V884h3.58v-11.403h.145l4.517 11.318h2.437l4.517-11.276h.145V884h3.58v-17.455h-4.552l-4.806 11.728h-.205l-4.807-11.728h-4.551zM192.642 884h11.796v-3.043h-8.106v-4.167h7.466v-3.043h-7.466v-4.159h8.071v-3.043h-11.761V884zm20.25 0h3.69v-5.659h3.103c4.014 0 6.349-2.395 6.349-5.881 0-3.469-2.293-5.915-6.256-5.915h-6.886V884zm3.69-8.616v-5.822h2.489c2.131 0 3.162 1.16 3.162 2.898 0 1.73-1.031 2.924-3.145 2.924h-2.506zm22.63-8.839v11.02c0 1.995-1.397 3.435-3.545 3.435-2.139 0-3.546-1.44-3.546-3.435v-11.02h-3.69v11.336c0 3.818 2.881 6.366 7.236 6.366 4.338 0 7.236-2.548 7.236-6.366v-11.336h-3.691zM245.939 884h11.795v-3.043h-8.105v-4.167h7.466v-3.043h-7.466v-4.159h8.071v-3.043h-11.761V884zm20.883 0c5.318 0 8.54-3.29 8.54-8.744 0-5.438-3.222-8.711-8.489-8.711h-6.239V884h6.188zm-2.497-3.162v-11.131h2.352c3.273 0 5.003 1.671 5.003 5.549 0 3.895-1.73 5.582-5.012 5.582h-2.343zm13.77 3.162h11.796v-3.043h-8.105v-4.167h7.465v-3.043h-7.465v-4.159h8.071v-3.043h-11.762V884zm24.164-12.435h3.537c-.051-3.11-2.608-5.258-6.494-5.258-3.827 0-6.631 2.113-6.614 5.284-.008 2.574 1.807 4.048 4.756 4.756l1.9.477c1.901.46 2.958 1.006 2.966 2.182-.008 1.278-1.218 2.147-3.093 2.147-1.918 0-3.299-.886-3.418-2.633h-3.571c.094 3.775 2.795 5.727 7.031 5.727 4.262 0 6.767-2.037 6.776-5.233-.009-2.906-2.199-4.449-5.233-5.13l-1.568-.375c-1.517-.35-2.787-.912-2.762-2.165 0-1.125.997-1.952 2.804-1.952 1.764 0 2.847.801 2.983 2.173zM32.9176 901.656c-.4858-4.031-3.5369-6.349-7.5767-6.349-4.6108 0-8.1307 3.255-8.1307 8.966 0 5.693 3.4603 8.966 8.1307 8.966 4.4744 0 7.1761-2.975 7.5767-6.188l-3.7329-.017c-.3495 1.867-1.8154 2.94-3.7841 2.94-2.6506 0-4.4489-1.968-4.4489-5.701 0-3.631 1.7727-5.702 4.4744-5.702 2.0199 0 3.4773 1.168 3.7586 3.085h3.7329zm18.6861 2.617c0-5.711-3.5455-8.966-8.1733-8.966-4.6534 0-8.1733 3.255-8.1733 8.966 0 5.684 3.5199 8.966 8.1733 8.966 4.6278 0 8.1733-3.256 8.1733-8.966zm-3.7415 0c0 3.699-1.7557 5.701-4.4318 5.701-2.6847 0-4.4318-2.002-4.4318-5.701s1.7471-5.702 4.4318-5.702c2.6761 0 4.4318 2.003 4.4318 5.702zm21.0746-8.728h-3.6733v10.978h-.1534l-7.5341-10.978h-3.2386V913h3.6903v-10.986h.1278L65.7493 913h3.1875v-17.455zm2.3842 3.043h5.3438V913h3.6477v-14.412h5.3437v-3.043H71.321v3.043zM88.8693 913l1.2955-3.98h6.2983l1.2954 3.98h3.9545l-6.017-17.455h-4.7557L84.9148 913h3.9545zm2.233-6.861l2.1477-6.605h.1364l2.1477 6.605h-4.4318zm27.2917-4.483c-.486-4.031-3.537-6.349-7.577-6.349-4.61 0-8.13 3.255-8.13 8.966 0 5.693 3.46 8.966 8.13 8.966 4.475 0 7.177-2.975 7.577-6.188l-3.733-.017c-.349 1.867-1.815 2.94-3.784 2.94-2.65 0-4.449-1.968-4.449-5.701 0-3.631 1.773-5.702 4.475-5.702 2.02 0 3.477 1.168 3.758 3.085h3.733zm1.982-3.068h5.343V913h3.648v-14.412h5.344v-3.043h-14.335v3.043zM137.924 913l1.295-3.98h6.299l1.295 3.98h3.955l-6.017-17.455h-4.756L133.969 913h3.955zm2.233-6.861l2.148-6.605h.136l2.148 6.605h-4.432zM152.869 913h3.69v-6.188h2.693l3.307 6.188h4.074l-3.708-6.784c1.986-.852 3.086-2.582 3.086-4.969 0-3.469-2.293-5.702-6.256-5.702h-6.886V913zm3.69-9.153v-5.285h2.489c2.13 0 3.162.947 3.162 2.685 0 1.73-1.032 2.6-3.145 2.6h-2.506zm12.06-8.302V913h3.579v-11.403h.145l4.517 11.318h2.438l4.517-11.276h.145V913h3.579v-17.455h-4.551l-4.807 11.728h-.204l-4.807-11.728h-4.551zM190.58 913h11.795v-3.043h-8.105v-4.167h7.466v-3.043h-7.466v-4.159h8.071v-3.043H190.58V913zm20.25 0h11.795v-3.043h-8.105v-4.167h7.466v-3.043h-7.466v-4.159h8.071v-3.043H210.83V913zm29.294-17.455h-3.673v10.978h-.153l-7.535-10.978h-3.238V913h3.69v-10.986h.128L236.937 913h3.187v-17.455zm5.103 6.87c1.091 0 2.037-.912 2.046-2.046-.009-1.116-.955-2.028-2.046-2.028-1.125 0-2.054.912-2.045 2.028-.009 1.134.92 2.046 2.045 2.046zm0 8.557c1.091 0 2.037-.912 2.046-2.046-.009-1.116-.955-2.028-2.046-2.028-1.125 0-2.054.912-2.045 2.028-.009 1.134.92 2.046 2.045 2.046z" fill="#000"/><path d="M209 715c0-1.657 1.343-3 3-3h671c1.657 0 3 1.343 3 3v84c0 1.657-1.343 3-3 3H212c-1.657 0-3-1.343-3-3v-84z" fill="#FFF501" fill-opacity=".67"/><path d="M244.034 774h7.381v-14.42h14.199v-6.086h-14.199v-8.318h15.733v-6.085h-23.114V774zm36.659-34.909h-7.381V774h7.381v-34.909zM287.965 774h22.347v-6.085h-14.966v-28.824h-7.381V774zm28.435-34.909V774h7.159v-22.807h.29l9.034 22.637h4.875l9.034-22.552h.29V774h7.159v-34.909h-9.103l-9.613 23.454h-.409l-9.614-23.454H316.4zm77.201 17.454c0-11.42-7.091-17.931-16.346-17.931-9.307 0-16.347 6.511-16.347 17.931 0 11.37 7.04 17.932 16.347 17.932 9.255 0 16.346-6.511 16.346-17.932zm-7.483 0c0 7.398-3.511 11.404-8.863 11.404-5.37 0-8.864-4.006-8.864-11.404 0-7.397 3.494-11.403 8.864-11.403 5.352 0 8.863 4.006 8.863 11.403zM400.268 774h7.381v-12.375h5.387L419.649 774h8.148l-7.415-13.568c3.972-1.705 6.171-5.165 6.171-9.938 0-6.937-4.586-11.403-12.512-11.403h-13.773V774zm7.381-18.307v-10.568h4.977c4.262 0 6.324 1.892 6.324 5.369 0 3.461-2.062 5.199-6.289 5.199h-5.012zM438.986 774l2.59-7.96h12.597l2.591 7.96h7.909l-12.034-34.909h-9.511L431.076 774h7.91zm4.465-13.722l4.296-13.21h.273l4.295 13.21h-8.864zm49.501 14.233c3.051 0 6.358-.852 8.932-2.863l2.114 2.352h7.568l-5.25-6.017c1.943-2.574 3.17-6.273 3.17-11.011h-6.017c0 2.284-.562 4.312-1.483 6.034l-5.761-6.614 2.045-1.466c2.932-2.114 4.637-4.773 4.637-8.062 0-4.466-3.46-8.233-9.068-8.233-5.728 0-9.529 3.903-9.529 8.966 0 3.102 1.5 5.693 3.324 8.011-3.801 2.608-6.358 5.08-6.358 9.119 0 5.506 4.415 9.784 11.676 9.784zm5.012-7.227c-1.466.904-3.069 1.398-4.654 1.398-3.034 0-4.994-1.875-4.994-4.364 0-1.329.903-2.863 2.829-4.261l.205-.137 6.614 7.364zm-5.233-15.034c-1.296-1.636-2.199-3.085-2.199-4.534 0-1.756 1.329-3.222 3.358-3.239 2.045-.017 3.204 1.415 3.204 2.796 0 1.466-.801 2.676-2.539 3.784l-1.824 1.193zm54.444-3.119h7.074c-.103-6.222-5.216-10.517-12.989-10.517-7.653 0-13.261 4.227-13.227 10.568-.017 5.148 3.613 8.096 9.511 9.511l3.801.955c3.801.92 5.915 2.011 5.932 4.363-.017 2.557-2.438 4.296-6.188 4.296-3.835 0-6.596-1.773-6.835-5.267h-7.142c.188 7.551 5.591 11.454 14.063 11.454 8.522 0 13.534-4.074 13.551-10.466-.017-5.812-4.398-8.897-10.466-10.261l-3.136-.75c-3.035-.699-5.574-1.824-5.523-4.329 0-2.25 1.994-3.904 5.608-3.904 3.528 0 5.693 1.602 5.966 4.347zm45.795 7.414c0-11.42-7.091-17.931-16.347-17.931-9.307 0-16.346 6.511-16.346 17.931 0 11.37 7.039 17.932 16.346 17.932 9.256 0 16.347-6.511 16.347-17.932zm-7.483 0c0 7.398-3.511 11.404-8.864 11.404-5.369 0-8.863-4.006-8.863-11.404 0-7.397 3.494-11.403 8.863-11.403 5.353 0 8.864 4.006 8.864 11.403zm43.349-17.454h-7.347v21.954h-.306l-15.069-21.954h-6.477V774h7.381v-21.972h.256L622.461 774h6.375v-34.909zm5.253 0l12.733 22.568V774h7.329v-12.341l12.733-22.568h-8.267l-7.96 15.034h-.341l-7.96-15.034h-8.267zm56.643 0h-8.199L694.584 774h9.511l12.034-34.909h-8.182l-8.454 26.523h-.324l-8.437-26.523zM721.531 774h23.591v-6.085h-16.21v-8.335h14.931v-6.086h-14.931v-8.318h16.142v-6.085h-23.523V774zm53.738-23.625h7.5c-.954-6.903-7.039-11.761-14.932-11.761-9.221 0-16.329 6.647-16.329 17.966 0 11.045 6.648 17.897 16.483 17.897 8.812 0 15.102-5.574 15.102-14.761v-4.398h-14.608v5.557h7.5c-.102 4.33-3.051 7.074-7.96 7.074-5.54 0-9.034-4.142-9.034-11.438 0-7.261 3.631-11.369 8.966-11.369 3.801 0 6.375 1.96 7.312 5.233zM794.776 774l2.591-7.96h12.597l2.591 7.96h7.909l-12.034-34.909h-9.512L786.867 774h7.909zm4.466-13.722l4.295-13.21h.273l4.296 13.21h-8.864zm44.764-11.147h7.074c-.102-6.222-5.216-10.517-12.989-10.517-7.653 0-13.261 4.227-13.227 10.568-.017 5.148 3.614 8.096 9.511 9.511l3.801.955c3.802.92 5.915 2.011 5.932 4.363-.017 2.557-2.437 4.296-6.187 4.296-3.836 0-6.597-1.773-6.836-5.267h-7.142c.188 7.551 5.591 11.454 14.063 11.454 8.523 0 13.534-4.074 13.551-10.466-.017-5.812-4.398-8.897-10.466-10.261l-3.136-.75c-3.034-.699-5.574-1.824-5.523-4.329 0-2.25 1.994-3.904 5.608-3.904 3.528 0 5.693 1.602 5.966 4.347z" fill="#fff" fill-opacity=".9"/></svg>